<svg id="Capa_1" enable-background="new 0 0 512 512" height="512" viewBox="0 0 512 512" width="512" xmlns="http://www.w3.org/2000/svg"><g><path d="m209.462 299.01h-20.462l-74.692-77.74h172.117z" fill="#fbcdbe"/><path d="m286.42 221.27-76.96 77.74h-9v-77.74z" fill="#fdbbab"/><path d="m380.533 328.892c-.63-20.636-7.769-40.09-20.643-56.257-12.899-16.199-30.309-27.523-50.437-32.773l-33.84-8.6c-5.47-1.388-11.256.408-14.976 4.652-.288.329-.561.668-.816 1.017l-59.271 58.053-60.904-59.88c-3.74-3.677-9.127-5.133-14.211-3.842l-33.932 8.624c-41.824 10.91-71.034 48.71-71.034 91.924v165.19c0 8.284 6.716 15 15 15h330.07c8.284 0 15-6.716 15-15v-167.65c.001-.153-.001-.305-.006-.458z" fill="#eff4fc"/><path d="m380.54 497c0 8.28-6.72 15-15 15h-165.08v-217.11l.09.09c27.94-27.445 57.646-56.289 60.09-59.07 3.72-4.24 9.5-6.04 14.97-4.65l33.84 8.6c41.602 10.85 69.814 47.572 71.08 89.03.018.271.01-8.123.01 168.11z" fill="#d1dae8"/><circle cx="200.462" cy="376" fill="#d1dae8" r="15"/><path d="m215.46 376c0 8.28-6.71 15-15 15v-30c8.29 0 15 6.72 15 15z" fill="#a3b2cc"/><circle cx="200.462" cy="436" fill="#d1dae8" r="15"/><path d="m215.46 436c0 8.28-6.71 15-15 15v-30c8.29 0 15 6.72 15 15z" fill="#a3b2cc"/><g><path d="m301.702 178.38c0 42.25-34.37 76.62-76.62 76.62h-56.76c-42.25 0-76.62-34.37-76.62-76.62v-54.098c6.529-6.205 12.992-11.432 21.03-14.266 23.641-8.334 52.768 4.084 91.17 4.084 35.328 0 74.836-9.037 97.68-35.96.227 1.73.078-4.085.12 100.24z" fill="#fddbcc"/><path d="m301.702 178.38c0 29.49-16.75 55.15-41.24 67.95-23.72 12.409-42.607 7.568-60 8.67v-140.94c36.066.946 77.864-8.509 101.12-35.92.228 1.688.085-4.327.12 100.24z" fill="#fbcdbe"/><path d="m312.226 0h-146.505c-40.814 0-74.02 33.205-74.02 74.02v45.108c.002 0-.001 15.872-.003 15.872 0 0 9.764-22.907 39.144-22.907 19.987 0 49.277 8.06 79.101 6.891 69.549-2.739 117.283-34.69 117.283-103.984 0-8.284-6.716-15-15-15z" fill="#3f5379"/><path d="m327.222 15c0 30.48-9.24 53.75-25.51 70.47-24.98 25.655-66.067 34.262-101.25 33.59v-119.06h111.76c8.29 0 15 6.72 15 15z" fill="#29406b"/></g><ellipse cx="371.475" cy="391.95" fill="#cb2944" rx="120.05" ry="120.05" transform="matrix(.707 -.707 .707 .707 -168.348 377.472)"/><path d="m491.53 391.95c0 66.2-53.86 120.05-120.06 120.05v-240.1c66.2 0 120.06 53.85 120.06 120.05z" fill="#b2243b"/><ellipse cx="371.475" cy="391.95" fill="#eff4fc" rx="90.05" ry="90.05" transform="matrix(.526 -.851 .851 .526 -157.234 501.886)"/><path d="m461.53 391.95c0 49.65-40.4 90.05-90.06 90.05v-180.1c49.66 0 90.06 40.4 90.06 90.05z" fill="#d1dae8"/><path d="m381.475 332c-8.284 0-15 6.716-15 15v29.95h-29.949c-8.284 0-15 6.716-15 15s6.716 15 15 15h44.949c8.284 0 15-6.716 15-15v-44.95c0-8.284-6.716-15-15-15z" fill="#3f5379"/><path d="m396.47 347v44.95c0 8.28-6.71 15-15 15h-10v-71.13c2.66-2.38 6.16-3.82 10-3.82 8.29 0 15 6.72 15 15z" fill="#29406b"/></g></svg>